<svg xmlns="http://www.w3.org/2000/svg"  viewBox="0 0 100 100" width="100px" height="100px"><path fill="#5c6bc0" d="M90,48.881c-5.219,17.653-13.819,12.976-15.133,11.711c0,0,3.648-5.884,3.648-12.152 c0-6.268-2.952-12.804-7.543-17.5c-4.571-4.696-10.19-8.357-6.495-12.286c3.009-3.163,8.819-2.262,17.067,7.609 C90,36.345,90,46.542,90,48.881z"/><path fill="#ba68c8" d="M90,48.881c0,13.532-7.733,26.987-16.076,26.987c-6.114,0-10.533-3.239-13.581-10.523 c0.267-1.208,0.533-2.473,1.029-4.006c0.152-0.479,0.324-0.978,0.514-1.514c0.152-0.422,0.324-0.862,0.514-1.303 c0.095-0.23,0.209-0.46,0.305-0.709c0.229-0.479,0.457-0.978,0.705-1.495c0.267-0.537,0.514-1.035,0.781-1.514 c0.267-0.46,0.533-0.901,0.8-1.303c0.095-0.134,0.171-0.268,0.267-0.383c0.171-0.249,0.362-0.479,0.552-0.69 c0.286-0.307,0.572-0.556,0.857-0.748c0.095-0.077,0.209-0.134,0.305-0.172c0.4-0.211,0.8-0.288,1.219-0.192 c0.229,0.038,0.457,0.115,0.686,0.249c0.114,0.058,0.209,0.134,0.324,0.23c0.114,0.096,0.248,0.192,0.362,0.307 s0.229,0.249,0.343,0.383c0.114,0.134,0.229,0.287,0.343,0.46c0.133,0.153,0.248,0.326,0.362,0.518v0.019 c1.048,2.415,2.047,4.945,4.257,7.111C76.181,61.857,84.781,66.534,90,48.881z"/><path fill="#ffb74d" d="M34.133,66.802c0.171,0.633,0.635,1.727,0.863,2.321c-0.095,0.057-0.171,0.096-0.267,0.134 c-5.41,2.281-15.564,3.979-23.149-5.426c0,0-0.395-1.254-0.514-1.706c-0.114-0.441-0.229-0.882-0.324-1.342 c-0.095-0.402-0.171-0.805-0.248-1.227c-0.114-0.594-0.209-1.208-0.286-1.802c-0.019-0.249-0.057-0.479-0.076-0.728 c-0.019-0.211-0.038-0.403-0.038-0.633c-0.038-0.268-0.057-0.556-0.057-0.843c-0.019-0.46-0.038-0.92-0.038-1.38 c0-20.355,12.667-37.146,21.143-37.05c2.381,0.038,4.286,1.591,5.295,4.178c1.257,3.258,0.438,12.554-2.381,23.595l-0.343,1.495 c-1.486,7.226-0.59,14.452,0.419,20.375C34.133,66.783,34.133,66.783,34.133,66.802z"/><path fill="#ff5252" d="M54.229,77.804c-0.037,0.068-4.229,4.562-5.067,5.175c-1.41,1.035-2.933,1.859-4.609,2.377 c-0.324,0.115-3.124,0.671-4.248,0.671c-0.438,0-5.048-0.556-5.41-0.652c-0.286-0.057-5.124-1.687-6.476-2.377 c-0.343-0.153-4.4-2.626-5.314-3.335c-0.419-0.307-2.781-2.358-3.181-2.741c-0.533-0.518-3.855-4.466-4.207-4.966 c-0.188-0.267-3.78-7.66-3.819-7.755c7.623,8.988,17.38,7.242,22.804,4.976c0.024-0.01,0.339-0.165,0.339-0.165 s0.028,0.084,0.033,0.097C40.176,83.401,50.024,81.127,54.229,77.804z"/><path fill="#1f212b" d="M30.449,70.995c-0.232,0-0.439-0.162-0.489-0.397c-0.057-0.271,0.117-0.535,0.387-0.592 c1.471-0.308,2.926-0.76,4.324-1.344c0.253-0.105,0.548,0.013,0.654,0.269c0.106,0.255-0.014,0.547-0.269,0.653 c-1.457,0.608-2.972,1.08-4.504,1.4C30.517,70.992,30.482,70.995,30.449,70.995z"/><path fill="#1f212b" d="M26.013,71.467c-0.181,0-0.362-0.002-0.542-0.007c-0.276-0.008-0.494-0.237-0.487-0.514 s0.275-0.488,0.513-0.486c0.628,0.017,1.271,0.002,1.906-0.042c0.28-0.018,0.515,0.188,0.534,0.464 c0.02,0.275-0.188,0.515-0.463,0.534C26.988,71.45,26.499,71.467,26.013,71.467z"/><path fill="#1f212b" d="M22.458,71.13c-0.032,0-0.063-0.003-0.096-0.009c-1.083-0.211-2.148-0.522-3.166-0.926 c-0.257-0.102-0.382-0.393-0.281-0.649c0.102-0.258,0.396-0.383,0.649-0.28c0.961,0.381,1.966,0.675,2.988,0.873 c0.271,0.053,0.448,0.315,0.396,0.587C22.901,70.964,22.692,71.13,22.458,71.13z"/><path fill="#1f212b" d="M16.497,68.759c-0.091,0-0.184-0.025-0.267-0.077c-1.7-1.077-3.286-2.476-4.713-4.158 c-0.179-0.21-0.153-0.526,0.058-0.704c0.21-0.179,0.525-0.153,0.705,0.058c1.361,1.605,2.871,2.938,4.485,3.959 c0.233,0.148,0.303,0.457,0.155,0.69C16.824,68.677,16.662,68.759,16.497,68.759z"/><path fill="#d81b60" d="M70.61,53.462c-0.114-0.192-0.229-0.364-0.362-0.518c-0.114-0.173-0.229-0.326-0.343-0.46 c-0.114-0.134-0.229-0.268-0.343-0.383s-0.229-0.23-0.362-0.307c-0.114-0.096-0.209-0.173-0.324-0.23 c-0.229-0.134-0.457-0.211-0.686-0.249c-0.419-0.096-0.819-0.019-1.219,0.192c-0.095,0.038-0.21,0.096-0.305,0.172 c-0.286,0.192-0.571,0.441-0.857,0.748c-0.19,0.211-0.381,0.441-0.552,0.69c-0.095,0.115-0.171,0.249-0.267,0.383 c-0.286,0.403-0.552,0.843-0.8,1.303c-0.267,0.479-0.514,0.978-0.781,1.514c-0.267,0.517-0.495,1.016-0.705,1.495 c-0.095,0.249-0.21,0.479-0.305,0.709c-0.19,0.441-0.362,0.882-0.514,1.303c-0.209,0.537-0.381,1.035-0.514,1.514 c-0.495,1.533-0.762,2.798-1.029,4.006c-0.604,2.562-2.607,7.773-5.993,12.304c-0.034,0.045-0.121,0.155-0.121,0.155 c-4.305,3.623-14.457,5.444-19.486-9.104c0-0.019-0.019-0.038-0.019-0.057c5.467-2.568,15.162-16.695,20.762-20.528 c4.571-3.124,9.619-3.124,12.324,0.326C68.705,49.571,69.486,50.644,70.61,53.462z"/><path fill="#1f212b" d="M40.305,87.026c-0.431,0-0.863-0.018-1.294-0.036c-0.397-0.025-0.685-0.046-0.994-0.088 c-0.213-0.015-0.466-0.037-0.74-0.079c-0.16-0.012-0.37-0.046-0.592-0.083c-0.357-0.054-0.626-0.096-0.916-0.158 c-0.34-0.053-0.735-0.136-1.13-0.24c-0.234-0.046-0.526-0.123-0.818-0.2l-0.267-0.074c-0.076-0.021-0.155-0.045-0.233-0.063 c-0.407-0.118-0.745-0.218-1.083-0.337c-1.491-0.495-2.936-1.095-4.274-1.778c-0.306-0.136-0.663-0.321-1.044-0.548 c-0.113-0.054-0.285-0.15-0.45-0.243l-0.189-0.104c-0.298-0.172-0.599-0.354-0.88-0.534c-1.01-0.618-1.995-1.297-2.909-2.006 c-0.405-0.296-0.812-0.626-1.22-0.977c-0.146-0.104-0.284-0.226-0.417-0.347l-0.105-0.096c-0.075-0.059-0.192-0.154-0.31-0.284 c-0.415-0.347-0.812-0.726-1.208-1.106c-0.918-0.891-1.385-1.38-1.623-1.692c-0.289-0.317-0.578-0.642-0.856-0.975 c-0.136-0.162-0.602-0.757-0.729-0.918c-0.255-0.324-0.762-1.012-1.125-1.526c-0.193-0.275-0.662-0.983-0.792-1.182 c-0.171-0.265-0.668-1.078-0.748-1.217c-0.334-0.595-0.666-1.203-0.979-1.832c-0.544-1.188-1.3-2.874-1.744-4.14l0,0 c-0.156-0.445-0.408-1.295-0.537-1.78c-0.12-0.462-0.238-0.919-0.336-1.396c-0.093-0.393-0.173-0.812-0.252-1.252 c-0.116-0.603-0.215-1.237-0.293-1.853c-0.014-0.161-0.027-0.267-0.04-0.373c-0.016-0.134-0.031-0.268-0.042-0.406 c-0.021-0.229-0.038-0.421-0.041-0.637c-0.038-0.293-0.058-0.601-0.058-0.915C9.02,55.118,9,54.645,9,54.171 c0-15.261,6.782-27.382,12.59-33.124c3.245-3.21,6.623-4.912,9.564-4.927c2.776,0.046,5.039,1.801,6.215,4.815 c1.562,4.05-0.408,15.38-2.336,24.172c-1.982,9.039-0.789,18.472,0.238,22.073c2.741-1.809,6.455-6.047,10.06-10.16 c3.568-4.071,6.938-7.916,9.59-9.731c5.082-3.476,10.706-3.255,13.676,0.533c0.959,1.212,1.787,2.372,2.941,5.27 c0.012,0.028,0.022,0.058,0.03,0.088l0.16,0.37c0.804,1.864,1.571,3.642,2.914,5.273c1.017-1.947,2.872-6.086,2.872-10.384 c0-5.871-2.713-12.151-7.257-16.8c-0.821-0.844-1.683-1.659-2.516-2.447c-3.784-3.581-7.697-7.285-3.994-11.224 c1.266-1.329,2.92-1.972,4.774-1.938c3.938,0.127,8.577,3.354,13.789,9.592C86.274,30.347,91,38.219,91,48.881 c0,14.386-8.299,27.987-17.076,27.987c-5.875,0-10.272-2.867-13.379-8.746c-1.082,3.023-2.962,6.871-5.394,10.126l-0.096,0.122 c-0.068,0.11-0.162,0.25-0.206,0.305l-0.166,0.215c-0.274,0.354-0.547,0.704-0.841,1.044c-0.506,0.588-1.042,1.166-1.59,1.718 c-0.812,0.798-1.65,1.513-2.5,2.134c-1.598,1.174-3.203,2-4.906,2.525c-0.306,0.11-0.685,0.219-1.084,0.309 C42.652,86.888,41.483,87.026,40.305,87.026z M19.153,74.682c0.153,0.174,1.003,1.072,1.467,1.522 c0.378,0.362,0.759,0.729,1.159,1.059c0.054,0.044,0.103,0.094,0.146,0.148c0.028,0.03,0.068,0.059,0.106,0.089l0.171,0.151 c0.078,0.071,0.155,0.146,0.241,0.204c0.033,0.022,0.064,0.047,0.095,0.072c0.379,0.327,0.759,0.637,1.157,0.928 c0.878,0.682,1.803,1.318,2.77,1.91c0.272,0.175,0.543,0.339,0.795,0.483l0.188,0.104c0.14,0.078,0.286,0.16,0.431,0.234 c0.35,0.204,0.64,0.359,0.948,0.497c1.295,0.66,2.645,1.221,4.059,1.689c0.323,0.114,0.628,0.203,0.933,0.294 c0.063,0.013,0.179,0.046,0.292,0.078l0.17,0.048c0.308,0.082,0.56,0.149,0.812,0.2c0.387,0.101,0.716,0.17,1.045,0.223 c0.298,0.062,0.524,0.097,0.769,0.133c0.007,0.001,0.103,0.017,0.11,0.018c0.168,0.028,0.326,0.057,0.497,0.071 c0.288,0.042,0.492,0.059,0.713,0.075c0.323,0.042,0.569,0.059,0.832,0.076c0.44,0.019,0.843,0.036,1.246,0.036 c1.02,0,2.031-0.119,3.003-0.354c0.319-0.072,0.623-0.156,0.909-0.259c1.526-0.472,2.937-1.2,4.354-2.24 c0.773-0.566,1.538-1.219,2.272-1.939c0.505-0.51,1.009-1.054,1.485-1.606c0.272-0.314,0.522-0.638,0.774-0.964l0.172-0.222 c0.017-0.023,0.056-0.082,0.077-0.118c0.026-0.046,0.063-0.104,0.096-0.144l0.103-0.13c3.476-4.652,5.327-9.841,5.82-11.935 c0.099-0.422,0.459-0.731,0.891-0.768c0.431-0.028,0.838,0.212,1.005,0.611c2.829,6.761,6.851,9.909,12.659,9.909 C81.532,74.868,89,61.996,89,48.881c0-10.061-4.472-17.503-8.223-21.975c-6.018-7.203-10.021-8.803-12.32-8.877 c-1.292-0.041-2.387,0.4-3.256,1.314c-2.113,2.246-0.43,4.284,3.915,8.396c0.848,0.802,1.725,1.632,2.572,2.503 c4.9,5.012,7.826,11.814,7.826,18.196c0,6.483-3.674,12.363-3.831,12.61c-0.162,0.255-0.43,0.423-0.73,0.458 c-0.304,0.037-0.599-0.067-0.815-0.279c-2.208-2.163-3.245-4.564-4.246-6.887l-0.201-0.463c-0.02-0.045-0.036-0.092-0.048-0.139 c-1.037-2.583-1.741-3.571-2.618-4.681c-2.329-2.97-6.739-3.016-10.975-0.12c-2.443,1.673-5.886,5.601-9.215,9.399 c-4.38,4.998-8.518,9.719-11.686,11.208c-0.243,0.113-0.521,0.127-0.772,0.032c-0.251-0.093-0.455-0.282-0.565-0.526 c-1.163-2.583-3.088-13.625-0.731-24.373c2.604-11.875,3.487-20.266,2.424-23.021c-0.877-2.249-2.433-3.507-4.378-3.539 c-0.02,0-0.041,0-0.061,0c-2.366,0-5.23,1.541-8.069,4.349C17.462,27.94,11,39.526,11,54.171c0,0.446,0.019,0.893,0.037,1.339 c0.001,0.28,0.017,0.521,0.048,0.744c0.006,0.047,0.01,0.094,0.01,0.141c0,0.18,0.015,0.332,0.03,0.495 c0.014,0.171,0.027,0.276,0.04,0.383c0.016,0.134,0.031,0.268,0.042,0.406c0.068,0.523,0.16,1.115,0.271,1.689 c0.075,0.414,0.147,0.8,0.239,1.185c0.098,0.471,0.208,0.896,0.318,1.321c0.116,0.434,0.356,1.242,0.491,1.626 c0.416,1.188,1.147,2.818,1.661,3.94c0.283,0.568,0.599,1.147,0.915,1.708c0.07,0.124,0.53,0.873,0.685,1.113 c0.121,0.186,0.566,0.858,0.75,1.119c0.341,0.484,0.819,1.133,1.034,1.406c0.149,0.19,0.589,0.753,0.717,0.906 c0.265,0.315,0.54,0.624,0.815,0.925C19.119,74.639,19.137,74.66,19.153,74.682z"/><path fill="#1f212b" d="M47.412,80.733c-0.256,0-0.475-0.196-0.498-0.457c-0.024-0.274,0.18-0.517,0.455-0.541 c2.531-0.221,4.991-1.286,5.818-2.147c0.191-0.198,0.508-0.206,0.707-0.014c0.199,0.191,0.206,0.508,0.014,0.707 c-0.973,1.013-3.652,2.206-6.452,2.45C47.441,80.732,47.426,80.733,47.412,80.733z"/><path fill="#1f212b" d="M43.462,80.314c-0.052,0-0.105-0.008-0.158-0.025c-2.216-0.738-4.234-2.307-6.169-4.795 c-1.592-2.047-2.981-5.643-3.04-5.795c-0.099-0.258,0.03-0.547,0.288-0.646c0.258-0.1,0.547,0.03,0.646,0.288 c0.014,0.035,1.395,3.61,2.895,5.539c1.811,2.326,3.673,3.785,5.696,4.459c0.262,0.088,0.403,0.371,0.316,0.633 C43.867,80.182,43.671,80.314,43.462,80.314z"/><path fill="#1f212b" d="M63.848,55.035c-0.086,0-0.173-0.022-0.252-0.068c-0.238-0.141-0.318-0.446-0.178-0.685 c0.912-1.555,1.842-2.641,2.764-3.229c0.701-0.447,1.377-0.597,2.005-0.448c0.944,0.225,1.538,1.05,1.95,1.744 c0.141,0.237,0.062,0.544-0.175,0.685c-0.237,0.142-0.544,0.063-0.685-0.175c-0.311-0.524-0.742-1.144-1.321-1.281 c-0.361-0.087-0.766,0.019-1.236,0.318c-0.787,0.503-1.608,1.476-2.439,2.893C64.187,54.947,64.02,55.035,63.848,55.035z"/><path fill="#1f212b" d="M60.925,61.988c-0.05,0-0.101-0.008-0.15-0.023c-0.263-0.083-0.41-0.363-0.327-0.627 c0.322-1.02,0.645-1.954,0.961-2.777c0.157-0.407,0.32-0.812,0.488-1.208c0.108-0.255,0.402-0.372,0.656-0.265 c0.254,0.107,0.373,0.401,0.264,0.655c-0.164,0.386-0.322,0.779-0.475,1.177c-0.309,0.804-0.625,1.719-0.941,2.719 C61.335,61.852,61.138,61.988,60.925,61.988z"/><path fill="#1f212b" d="M84.513,60.076c-0.127,0-0.255-0.049-0.352-0.146c-0.196-0.194-0.197-0.511-0.003-0.707 c1.882-1.896,4.103-5.511,4.822-9.316c0.051-0.271,0.315-0.445,0.584-0.398c0.271,0.051,0.45,0.312,0.398,0.584 c-0.758,4.014-3.105,7.832-5.094,9.836C84.771,60.027,84.642,60.076,84.513,60.076z"/><path fill="#1f212b" d="M79.472,62.897c-0.246,0-0.46-0.182-0.495-0.432c-0.038-0.274,0.154-0.526,0.427-0.563 c0.622-0.086,1.258-0.283,1.892-0.588c0.25-0.12,0.547-0.016,0.667,0.233c0.12,0.249,0.015,0.548-0.234,0.667 c-0.728,0.351-1.464,0.578-2.189,0.678C79.517,62.896,79.494,62.897,79.472,62.897z"/><path fill="#1f212b" d="M77.549,62.839c-0.031,0-0.062-0.003-0.094-0.009c-0.921-0.177-2.254-0.608-3.373-1.666 c-0.2-0.189-0.209-0.506-0.02-0.707c0.19-0.2,0.507-0.209,0.707-0.02c0.993,0.938,2.226,1.286,2.873,1.41 c0.271,0.052,0.449,0.313,0.397,0.585C77.994,62.672,77.784,62.839,77.549,62.839z"/></svg>