<svg xmlns="http://www.w3.org/2000/svg" xmlns:xlink="http://www.w3.org/1999/xlink" viewBox="0,0,256,256" width="100px" height="100px"><g fill="#ffffff" fill-rule="nonzero" stroke="none" stroke-width="1" stroke-linecap="butt" stroke-linejoin="miter" stroke-miterlimit="10" stroke-dasharray="" stroke-dashoffset="0" font-family="none" font-weight="none" font-size="none" text-anchor="none" style="mix-blend-mode: normal"><g transform="scale(2.56,2.56)"><path d="M68.52148,16.0293c-1.866,-0.061 -3.50939,0.60845 -4.77539,1.93945c-3.703,3.939 0.21014,7.64166 3.99414,11.22266c0.833,0.789 1.69658,1.60327 2.51758,2.44727c4.544,4.649 7.25586,10.92978 7.25586,16.80078c0,4.298 -1.85409,8.43681 -2.87109,10.38281c-1.343,-1.631 -2.11006,-3.40944 -2.91406,-5.27344l-0.16016,-0.36914c-0.008,-0.03 -0.01925,-0.05989 -0.03125,-0.08789c-1.154,-2.898 -1.98045,-4.05753 -2.93945,-5.26953c-2.97,-3.787 -8.59378,-4.0082 -13.67578,-0.5332c-2.652,1.815 -6.0238,5.65947 -9.5918,9.73047c-3.605,4.113 -7.31759,8.35116 -10.05859,10.16016c-1.027,-3.601 -2.22028,-13.03327 -0.23828,-22.07227c1.928,-8.792 3.89794,-20.12187 2.33594,-24.17187c-1.176,-3.014 -3.43884,-4.77041 -6.21484,-4.81641c-2.941,0.003 -6.31945,1.71773 -9.56445,4.92773c-5.808,5.742 -12.58984,17.864 -12.58984,33.125c0,0.474 0.01911,0.94686 0.03711,1.38086c0,0.314 0.02059,0.62206 0.05859,0.91406c0.003,0.217 0.02002,0.40772 0.04102,0.63672c0.011,0.138 0.02697,0.27225 0.04297,0.40625c0.013,0.106 0.02506,0.21205 0.03906,0.37305c0.078,0.615 0.17697,1.24952 0.29297,1.85352c0.079,0.44 0.15895,0.85895 0.25195,1.25195c0.098,0.477 0.21594,0.93449 0.33594,1.39648c0.129,0.485 0.38111,1.3343 0.53711,1.7793c0.445,1.271 1.20214,2.95467 1.74414,4.13867c0.312,0.63 0.64452,1.23898 0.97852,1.83398c0.08,0.139 0.57705,0.9518 0.74805,1.2168c0.13,0.199 0.59802,0.90664 0.79102,1.18164c0.363,0.514 0.87,1.20139 1.125,1.52539c0.127,0.161 0.59447,0.75597 0.73047,0.91797c0.278,0.333 0.56647,0.65761 0.85547,0.97461c0.238,0.312 0.70505,0.80236 1.62305,1.69336c0.397,0.379 0.79303,0.75752 1.20703,1.10352c0.122,0.136 0.24259,0.2312 0.30859,0.2832l0.10156,0.09375c0.135,0.124 0.27583,0.24656 0.42383,0.35156c0.408,0.351 0.81375,0.68056 1.21875,0.97656c0.914,0.709 1.90016,1.38981 2.91016,2.00781c0.281,0.18 0.58091,0.3612 0.87891,0.5332l0.18945,0.10352c0.165,0.093 0.33817,0.19014 0.45117,0.24414c0.381,0.227 0.73697,0.41088 1.04297,0.54688c1.34,0.684 2.78548,1.28534 4.27148,1.77734c0.339,0.12 0.67699,0.21989 1.08398,0.33789c0.078,0.018 0.15837,0.0415 0.23438,0.0625l0.26562,0.07422c0.292,0.077 0.58436,0.15517 0.81836,0.20117c0.395,0.104 0.79086,0.18528 1.13086,0.23828c0.29,0.062 0.55902,0.1042 0.91602,0.1582c0.222,0.037 0.4318,0.07198 0.5918,0.08398c0.272,0.042 0.52319,0.06212 0.74219,0.07813c0.308,0.041 0.59619,0.06289 0.99219,0.08789c0.431,0.018 0.86197,0.03711 1.29297,0.03711c1.174,0 2.34203,-0.1392 3.45703,-0.4082c0.399,-0.09 0.77798,-0.19859 1.08398,-0.30859c1.703,-0.525 3.30825,-1.35139 4.90625,-2.52539c0.845,-0.618 1.683,-1.33181 2.5,-2.13281c0.548,-0.552 1.08384,-1.13075 1.58984,-1.71875c0.291,-0.337 0.56103,-0.6822 0.83203,-1.0332l0.16992,-0.2168c0.045,-0.056 0.14094,-0.2005 0.21094,-0.3125l0.0957,-0.12305c2.432,-3.255 4.31253,-7.10395 5.39453,-10.12695c3.107,5.879 7.50391,8.74609 13.37891,8.74609c8.777,0 17.07617,-13.59933 17.07617,-27.98633c0,-10.661 -4.72545,-18.53377 -8.68945,-23.25976c-5.212,-6.237 -9.85106,-9.4648 -13.78906,-9.5918zM68.45703,18.02734c2.298,0.075 6.30231,1.67495 12.32031,8.87695c3.751,4.473 8.22266,11.91656 8.22266,21.97656c0,0.36678 -0.02754,0.73153 -0.03906,1.09766c-0.7334,3.7792 -2.93375,7.36224 -4.80273,9.24414c-0.195,0.196 -0.19405,0.51303 0.00195,0.70703c0.098,0.097 0.22652,0.14453 0.35352,0.14453c0.129,0 0.25556,-0.04749 0.35156,-0.14648c1.24934,-1.2575 2.64027,-3.22999 3.68945,-5.51758c-1.69271,10.97549 -8.1017,20.45679 -14.62695,20.45508c-5.808,0 -9.83116,-3.1472 -12.66016,-9.9082c-0.167,-0.399 -0.57291,-0.63933 -1.00391,-0.61133c-0.432,0.037 -0.79358,0.34558 -0.89258,0.76758c-0.493,2.094 -2.34236,7.28355 -5.81836,11.93555l-0.10352,0.13086c-0.033,0.04 -0.0697,0.09658 -0.0957,0.14258c-0.02,0.034 -0.05812,0.09119 -0.07812,0.11719l-0.16016,0.20898c-0.87947,0.84989 -3.27219,1.87099 -5.74609,2.08594c-0.275,0.023 -0.47908,0.26702 -0.45508,0.54102c0.023,0.261 0.24105,0.45703 0.49805,0.45703c0.014,0 0.02797,-0.00095 0.04297,-0.00195c1.33073,-0.11549 2.62845,-0.44947 3.73438,-0.87305c-0.11727,0.12233 -0.22791,0.25604 -0.3457,0.375c-0.739,0.723 -1.50344,1.37645 -2.27344,1.93945c-1.417,1.04 -2.82751,1.76628 -4.35352,2.23828c-0.286,0.103 -0.5902,0.18777 -0.9082,0.25977c-0.977,0.235 -1.98791,0.35352 -3.00391,0.35352c-0.403,0 -0.80609,-0.01616 -1.24609,-0.03516c-0.265,-0.017 -0.51112,-0.03517 -0.82812,-0.07617c-0.222,-0.017 -0.4268,-0.03222 -0.7168,-0.07422c-0.171,-0.014 -0.32809,-0.04427 -0.49609,-0.07227c-0.007,-0.001 -0.10433,-0.01658 -0.11133,-0.01758c-0.245,-0.036 -0.46958,-0.07081 -0.76758,-0.13281c-0.329,-0.053 -0.65792,-0.12166 -1.04492,-0.22266c-0.252,-0.051 -0.5045,-0.11917 -0.8125,-0.20117l-0.16992,-0.04687c-0.112,-0.032 -0.22902,-0.06512 -0.29102,-0.07812c-0.304,-0.09 -0.60859,-0.17992 -0.93359,-0.29492c-1.411,-0.466 -2.76159,-1.02845 -4.05859,-1.68945c-0.308,-0.138 -0.59727,-0.29209 -0.94727,-0.49609c-0.145,-0.074 -0.29164,-0.15637 -0.43164,-0.23438l-0.1875,-0.10352c-0.252,-0.144 -0.52292,-0.30742 -0.79492,-0.48242c-0.967,-0.592 -1.89348,-1.22816 -2.77148,-1.91016c-0.398,-0.291 -0.77725,-0.60074 -1.15625,-0.92773c-0.031,-0.025 -0.0627,-0.05026 -0.0957,-0.07227c-0.088,-0.059 -0.16514,-0.13503 -0.24414,-0.20703l-0.16602,-0.14648c-0.037,-0.03 -0.07652,-0.05889 -0.10352,-0.08789c-0.045,-0.056 -0.09634,-0.10634 -0.15234,-0.15234c-0.4,-0.329 -0.7812,-0.69659 -1.1582,-1.05859c-0.46,-0.447 -1.3128,-1.34944 -1.4668,-1.52344c-0.017,-0.021 -0.03383,-0.0405 -0.04883,-0.0625c-0.275,-0.301 -0.55141,-0.61078 -0.81641,-0.92578c-0.128,-0.153 -0.5678,-0.71625 -0.7168,-0.90625c-0.215,-0.273 -0.6922,-0.9203 -1.0332,-1.4043c-0.184,-0.261 -0.629,-0.93314 -0.75,-1.11914c-0.155,-0.24 -0.61555,-0.98928 -0.68555,-1.11328c-0.316,-0.561 -0.63006,-1.13899 -0.91406,-1.70898c-0.074,-0.16154 -0.11788,-0.26819 -0.1875,-0.42187c0.71841,0.61561 1.4612,1.17671 2.23047,1.66406c0.083,0.052 0.17462,0.07813 0.26563,0.07813c0.165,0 0.32783,-0.08242 0.42383,-0.23242c0.148,-0.233 0.0787,-0.54145 -0.1543,-0.68945c-1.3474,-0.85235 -2.61671,-1.93527 -3.79297,-3.19922c-0.16468,-0.4067 -0.33903,-0.82883 -0.44726,-1.13867c-0.135,-0.384 -0.37424,-1.19295 -0.49024,-1.62695c-0.11,-0.425 -0.22036,-0.84931 -0.31836,-1.32031c-0.092,-0.385 -0.16328,-0.77155 -0.23828,-1.18555c-0.111,-0.574 -0.20349,-1.1655 -0.27149,-1.6875c-0.011,-0.138 -0.02697,-0.27225 -0.04297,-0.40625c-0.013,-0.107 -0.02506,-0.21181 -0.03906,-0.38281c-0.015,-0.163 -0.0293,-0.31509 -0.0293,-0.49609c0,-0.047 -0.00376,-0.09463 -0.00976,-0.14062c-0.031,-0.222 -0.04783,-0.46414 -0.04883,-0.74414c-0.018,-0.446 -0.03711,-0.89189 -0.03711,-1.33789c0,-14.644 6.46205,-26.23008 11.99805,-31.70508c2.839,-2.808 5.70236,-4.34961 8.06836,-4.34961h0.0625c1.945,0.032 3.49995,1.29006 4.37695,3.53906c1.063,2.755 0.18017,11.14648 -2.42383,23.02148c-2.34518,10.6941 -0.45175,21.67193 0.71289,24.32617c-1.12575,0.41927 -2.28096,0.75775 -3.44727,1.00195c-0.27,0.057 -0.44372,0.3208 -0.38672,0.5918c0.05,0.235 0.25628,0.39648 0.48828,0.39648c0.033,0 0.06852,-0.00177 0.10352,-0.00977c1.22959,-0.25683 2.44632,-0.61616 3.63281,-1.06055c0.24797,0.6285 1.48818,3.69171 2.94922,5.57031c1.935,2.488 3.95392,4.05792 6.16992,4.79492c0.053,0.017 0.1062,0.02539 0.1582,0.02539c0.209,0 0.40461,-0.1328 0.47461,-0.3418c0.087,-0.263 -0.05636,-0.54581 -0.31836,-0.63281c-2.023,-0.673 -3.88431,-2.13199 -5.69531,-4.45898c-1.37003,-1.76186 -2.588,-4.77142 -2.80859,-5.32812c0.01125,-0.00475 0.02404,-0.00264 0.03516,-0.00781c3.168,-1.489 7.30555,-6.21099 11.68555,-11.20898c3.329,-3.798 6.77184,-7.72544 9.21484,-9.39844c4.236,-2.897 8.64561,-2.85186 10.97461,0.11914c0.38091,0.48212 0.73079,0.96229 1.08789,1.53906c-0.60777,-0.12497 -1.25708,0.02689 -1.93164,0.45703c-0.922,0.589 -1.85067,1.67452 -2.76367,3.22852c-0.139,0.239 -0.06027,0.54359 0.17773,0.68359c0.08,0.047 0.16595,0.06836 0.25195,0.06836c0.172,0 0.33959,-0.08709 0.43359,-0.24609c0.831,-1.416 1.65245,-2.38958 2.43945,-2.89258c0.471,-0.299 0.87538,-0.40236 1.23438,-0.31836c0.55014,0.1304 0.9655,0.69771 1.27344,1.20313c0.13689,0.31066 0.26685,0.58743 0.41602,0.95898c0.012,0.047 0.02688,0.09367 0.04688,0.13867l0.20117,0.46094c1.002,2.323 2.03709,4.72367 4.24609,6.88867c0.01665,0.01642 0.04101,0.02006 0.05859,0.03516c1.0938,0.98147 2.36669,1.39533 3.25781,1.56641c0.032,0.006 0.06275,0.00977 0.09375,0.00977c0.235,0 0.44523,-0.16625 0.49023,-0.40625c0.052,-0.272 -0.12548,-0.53394 -0.39648,-0.58594c-0.46477,-0.08908 -1.23484,-0.30218 -1.99805,-0.75781c0.01097,-0.0153 0.02891,-0.02308 0.03906,-0.03906c0.157,-0.247 3.83203,-6.12833 3.83203,-12.61133c0,-6.382 -2.92617,-13.18331 -7.82617,-18.19531c-0.848,-0.871 -1.72427,-1.70191 -2.57227,-2.50391c-4.345,-4.112 -6.02902,-6.14948 -3.91602,-8.39648c0.87,-0.914 1.96186,-1.32745 3.25586,-1.31445zM62.35742,57.04688c-0.19505,-0.00042 -0.37994,0.11344 -0.46094,0.30469c-0.168,0.397 -0.33128,0.80098 -0.48828,1.20898c-0.316,0.823 -0.63894,1.75734 -0.96094,2.77734c-0.083,0.264 0.06513,0.54395 0.32813,0.62695c0.049,0.015 0.10039,0.02344 0.15039,0.02344c0.213,0 0.40956,-0.13661 0.47656,-0.34961c0.316,-1 0.63241,-1.91375 0.94141,-2.71875c0.153,-0.398 0.31061,-0.79173 0.47461,-1.17773c0.108,-0.255 -0.01163,-0.5473 -0.26562,-0.6543c-0.06375,-0.027 -0.1303,-0.04087 -0.19531,-0.04102zM81.48828,61.26563c-0.06488,0.00316 -0.12891,0.01883 -0.19141,0.04883c-0.634,0.305 -1.27058,0.50189 -1.89258,0.58789c-0.273,0.037 -0.46573,0.29045 -0.42773,0.56445c0.035,0.25 0.25009,0.43164 0.49609,0.43164c0.022,0 0.04341,-0.00286 0.06641,-0.00586c0.725,-0.1 1.46145,-0.32673 2.18945,-0.67773c0.249,-0.119 0.35438,-0.41702 0.23438,-0.66602c-0.09,-0.186 -0.27998,-0.29267 -0.47461,-0.2832zM19.37109,69.23047c-0.1942,0.00403 -0.38053,0.12366 -0.45703,0.31641c-0.101,0.256 0.02425,0.54644 0.28125,0.64844c1.018,0.404 2.08302,0.71478 3.16602,0.92578c0.033,0.006 0.0637,0.00977 0.0957,0.00977c0.234,0 0.44323,-0.1663 0.49023,-0.4043c0.052,-0.272 -0.12353,-0.53489 -0.39453,-0.58789c-1.022,-0.198 -2.02728,-0.49205 -2.98828,-0.87305c-0.06325,-0.02575 -0.12862,-0.0365 -0.19336,-0.03516zM27.40234,70.41797c-0.635,0.044 -1.27825,0.06097 -1.90625,0.04297c-0.238,0.009 -0.50472,0.20737 -0.51172,0.48437c-0.007,0.277 0.21033,0.50763 0.48633,0.51563c0.18,0.005 0.36197,0.00586 0.54297,0.00586c0.486,0 0.97494,-0.01678 1.46094,-0.05078c0.275,-0.019 0.48289,-0.2582 0.46289,-0.5332c-0.019,-0.276 -0.25516,-0.48784 -0.53516,-0.46484z"></path></g></g></svg>